<svg width="17" height="15" viewBox="0 0 17 15" fill="none" xmlns="http://www.w3.org/2000/svg">
<path fill-rule="evenodd" clip-rule="evenodd" d="M4.50066 9.54741e-05V0L4.49456 0.000190902C1.87803 0.0819575 -0.077431 2.28887 0.00235637 4.89262C0.00342386 6.48175 0.836293 8.10746 1.97907 9.59504C3.12602 11.0881 4.60526 12.4678 5.94096 13.5678L5.94196 13.5686C7.26291 14.6419 9.16809 14.6473 10.4173 13.5651C11.7516 12.427 13.2298 11.0284 14.376 9.53636C15.5178 8.05012 16.3516 6.4436 16.3527 4.89262C16.4325 2.28886 14.4771 0.0819574 11.8605 0.000190902L11.8605 9.54741e-05H11.8544C10.3994 9.54741e-05 9.02465 0.783567 8.18508 2.00984C7.40533 0.778936 6.02295 9.54741e-05 4.50066 9.54741e-05ZM10.4173 13.5651L10.4179 13.5646L10.2898 13.4168L10.4167 13.5656L10.4173 13.5651ZM0.00235637 4.89262L0.00235534 4.88956H0.197934L0.00245077 4.89567L0.00235637 4.89262ZM1.645 4.88068C1.57143 3.26219 2.8216 1.79936 4.42243 1.72141C6.02325 1.79936 7.2734 3.26219 7.19984 4.88068L7.19964 4.88067V4.88956C7.19964 5.4044 7.61649 5.71103 8.02108 5.71103C8.53594 5.71103 8.8425 5.29412 8.8425 4.88956H8.8427L8.8423 4.88068C8.76873 3.26219 10.0189 1.79936 11.6197 1.72141C13.2205 1.79936 14.4707 3.26219 14.3971 4.88068L14.3964 4.89731L14.3984 4.91382C14.5067 5.77973 14.1104 6.88302 13.2291 8.15173C12.3524 9.4138 11.0166 10.8094 9.30336 12.2501L9.30332 12.2501L9.2993 12.2536C8.67349 12.8099 7.68639 12.819 6.97162 12.2486C5.25964 10.8087 3.92335 9.41281 3.0167 8.14929C2.10585 6.87992 1.6452 5.76713 1.6452 4.88956H1.6454L1.645 4.88068Z" fill="white"/>
</svg>